# xmcd CD database file
#
# Track frame offsets:
#	187
#	15132
#	27890
#	42507
#	57237
#	69617
#	87145
#	96860
#	108100
#	117980
#	130830
#	144227
#	161470
#	190982
#	204567
#	221280
#	238312
#
# Disc length: 3335 seconds
#
# Revision: 0
# Processed by: cddbd v1.5PL3 Copyright (c) Steve Scherf et al.
# Submitted via: CDex 1.50
#
DISCID=e20d0511
DTITLE=Various Artist - Brasiliance! Influencia do Jazz 3
DYEAR=1900
DGENRE=Brazilian
TTITLE0=Paulo Moura - DOIS SEM VERGONHA
TTITLE1=Llora Purim - CARTAO DE VISITA
TTITLE2=Raulzinho - VOCE E EU
TTITLE3=Milton Banana Trio - LINHA DE PASSE
TTITLE4=Tamba Trio - 3 HORAS DA MANHA
TTITLE5=Sebastiao Tapapjos - PAI JOAO
TTITLE6=Miucha and Tom Jobim - TRISTE ALEGRIA
TTITLE7=Johnny Alf - SEU CHOPIN, DESCULPE
TTITLE8=Flora Purim - SAMBA DO CARIOCA
TTITLE9=Milton Banana Trio - O MORRO NAO TEM VEZ - A FELICIDADE
TTITLE10=Antonio Carlos and Jocafi - ORO MI MAYO
TTITLE11=Tamba Trio - SANGUESSUGA
TTITLE12=Sebastiao Tapajos - TUDO BEM
TTITLE13=Paulo Moura - AMOR PROIBIDO
TTITLE14=Antonio Carlos and Jocafi - VOCE ABUSOU
TTITLE15=Raulzinho - SAMBA DO AVIAO
TTITLE16=Miucha and Tom Jobim - FALANDO DE AMOR
EXTD=
EXTT0=
EXTT1=
EXTT2=
EXTT3=
EXTT4=
EXTT5=
EXTT6=
EXTT7=
EXTT8=
EXTT9=
EXTT10=
EXTT11=
EXTT12=
EXTT13=
EXTT14=
EXTT15=
EXTT16=
PLAYORDER=
